<?xml version="1.0" encoding="UTF-8"?>
<svg id="Layer_1" xmlns="http://www.w3.org/2000/svg" version="1.1" xmlns:xlink="http://www.w3.org/1999/xlink" viewBox="0 0 400 400">

  <path class="st0" d="M262,156.1l17.4,20.5c2,2.3,3.8,4.2,4.5,5.3,5.2,5.2,8.1,12.2,8.1,19.5-.5,8.6-6.1,14.5-11.3,20.7l-12.2,14.3-6.4,7.4c-.2.3-.4.6-.4.9s0,.7.2,1c.1.3.4.6.7.7.3.2.6.3,1,.2h63.6c9.7,0,21.9,8.2,21.2,20.5,0,5.6-2.3,11-6.3,15-4,4-9.5,6.2-15.2,6.2h-99.6c-6.6,0-24.2.7-29.1-14.3-1.1-3.1-1.2-6.5-.4-9.7,1.4-4.8,3.7-9.2,6.7-13.2,5-7.4,10.4-14.8,15.8-22,6.9-9.4,14-18.5,20.9-28.1.2-.3.4-.7.4-1.1s-.1-.8-.4-1.1l-25.3-29.7c-.2-.2-.4-.4-.6-.5-.2-.1-.5-.2-.8-.2s-.5,0-.8.2-.5.3-.6.5c-6.8,9-36.4,48.9-42.8,57-6.3,8.1-21.9,8.5-30.5,0l-39.6-39.1c-.2-.2-.6-.4-.9-.5-.3,0-.7,0-1.1.1-.3.1-.6.4-.8.7s-.3.6-.3,1v75.3c.1,5.3-1.5,10.6-4.6,15-3.1,4.4-7.5,7.7-12.6,9.5-3.3,1.1-6.7,1.5-10.1,1-3.4-.5-6.7-1.8-9.5-3.7-2.8-2-5.1-4.6-6.7-7.6-1.6-3-2.4-6.4-2.4-9.8v-135.3c.2-4.9,2-9.6,5.1-13.4,3.1-3.8,7.3-6.6,12.1-7.9,4.1-1.1,8.4-1.1,12.5,0,4.1,1.1,7.8,3.2,10.8,6.2l60.8,60c.2.2.4.3.6.4s.5.1.8.1c.3,0,.5-.1.7-.2s.4-.3.6-.5l43.2-59c2-2.4,4.5-4.3,7.3-5.7,2.8-1.3,5.9-2,9.1-2.1h112.4c3.1,0,6.1.7,8.9,1.9,2.8,1.3,5.3,3.1,7.3,5.4,2,2.3,3.5,5,4.4,7.9.9,2.9,1.1,6,.7,9-.8,5.2-3.5,10-7.6,13.4-4.1,3.4-9.3,5.3-14.6,5.2h-62.9c-.3,0-.6.1-.9.3-.3.2-.5.4-.6.7-.1.3-.2.6-.2.9,0,.3.1.6.3.9h0Z"/>
</svg>