<svg width="89" height="58" viewBox="0 0 89 58" fill="black" xmlns="http://www.w3.org/2000/svg">
<path d="M68.746 0.573998C74.798 0.573998 79.592 2.614 83.128 6.694C86.664 10.706 88.432 16.112 88.432 22.912V58H71.092V26.788C71.092 23.524 70.48 21.11 69.256 19.546C68.032 17.914 65.856 17.098 62.728 17.098C56.2 17.098 52.936 20.804 52.936 28.216V58H35.596V26.788C35.596 23.524 34.984 21.11 33.76 19.546C32.536 17.914 30.36 17.098 27.232 17.098C20.704 17.098 17.44 20.804 17.44 28.216V58H0.1V1.9H17.44V8.224C21.588 3.124 26.892 0.573998 33.352 0.573998C41.172 0.573998 46.782 3.838 50.182 10.366C54.67 3.838 60.858 0.573998 68.746 0.573998Z"/>
</svg>